# xmcd
#
# Track frame offsets: 
#        150
#        13130
#        31350
#        44870
#        71120
#        91465
#        110800
#        123615
#        142170
#        159730
#        178807
#        215582
#        230915
#
# Disc length: 3138 seconds
#
# Revision: 4
# Processed by: cddbd v1.5.2PL0 Copyright (c) Steve Scherf et al.
# Submitted via: ExactAudioCopy v1.3
#
DISCID=d70c400d
DTITLE=Various Artists / Six Feet Under - Vol 2: Everything Ends
DYEAR=2005
DGENRE=Soundtrack
TTITLE0=Nina Simone / Feeling Good
TTITLE1=Jem / Amazing Life
TTITLE2=Phoenix / Everything Is Everything
TTITLE3=Coldplay / A Rush of Blood to the Head
TTITLE4=Sia / Breathe Me
TTITLE5=Radiohead / Lucky
TTITLE6=Irma Thomas / Time Is on My Side
TTITLE7=Bebel Gilberto / Aganjú (The Latin Project Remix)
TTITLE8=Interpol / Direction
TTITLE9=Caesars / (Don't Fear) the Reaper
TTITLE10=Death Cab For Cutie / Transatlanticism
TTITLE11=Arcade Fire / Cold Wind
TTITLE12=Imogen Heap / I'm a Lonely Little Petunia (In an Onion Patch)
EXTD=
EXTT0=
EXTT1=
EXTT2=
EXTT3=
EXTT4=
EXTT5=
EXTT6=
EXTT7=
EXTT8=
EXTT9=
EXTT10=
EXTT11=
EXTT12=
PLAYORDER=
.
